<?xml version="1.0" encoding="UTF-8" standalone="no"?>
<!DOCTYPE svg PUBLIC "-//W3C//DTD SVG 1.1//EN" "http://www.w3.org/Graphics/SVG/1.1/DTD/svg11.dtd">
<!--     style="fill-rule:evenodd;clip-rule:evenodd;stroke-linejoin:round;stroke-miterlimit:1.41421;" -->
<svg
    width="100%"
    height="100%"
    viewBox="0 0 600 400"
    version="1.1"
    xmlns="http://www.w3.org/2000/svg"
    xmlns:xlink="http://www.w3.org/1999/xlink"
    xml:space="preserve"
>

    <rect id="NHbox" class="box" x="560.86" y="110.364" width="22.317" height="16.397"/>
    <rect id="MAbox" class="box" x="564.501" y="130.631" width="22.317" height="16.397"/>
    <rect id="RIbox" class="box" x="565.523" y="150.039" width="22.317" height="16.397"/>
    <rect id="CTbox" class="box" x="540.675" y="160.648" width="22.317" height="16.397"/>
    <rect id="VTbox" class="box" x="498.72" y="75.328" width="22.317" height="16.397"/>
    <rect id="NJbox" class="box" x="527.661" y="178.825" width="22.317" height="16.397"/>
    <rect id="DEbox" class="box" x="530.988" y="197.605" width="22.317" height="16.397"/>
    <rect id="DCbox" class="box" x="523.481" y="235.827" width="22.317" height="16.397"/>
    <rect id="MDbox" class="box" x="527.608" y="216.763" width="22.317" height="16.397"/>

    <path id="ME" class="state" d="M562.908,89.453L563.609,90.155L565.247,90.669L566.816,90.506L567.518,90.155L567.518,89.593L567.938,90.342L568.664,92.282L568.361,93.428L568.408,93.872L569.507,93.756L569.976,94.527L569.998,95.392L569.204,96.515L567.893,97.052L567.494,97.731L566.371,98.199L565.927,99.063L565.272,99.531L563.376,100.326L563.188,101.519L562.275,102.337L561.456,102.571L560.496,104.044L560.24,105.027L559.584,105.517L557.664,104.722L556.915,105.33L556.049,105.307L555.418,104.489L554.973,103.296L554.622,103.249L554.084,103.623L553.428,104.582L553.544,106.452L553.218,107.809L553.406,109.072L552.983,110.872L552.68,111.13L551.44,111.012L550.924,111.831L550.62,113.258L549.918,113.772L549.473,113.888L548.794,113.163L548.397,113.374L548.373,115.175L547.998,116.087L547.647,116.04L546.735,114.871L546.079,114.871L544.816,115.97L543.903,117.676L543.95,119.735L543.27,120.927L542.171,124.482L540.041,127.31L539.011,126.492L538.801,125.277L536.788,123.125L536.554,121.255L533.581,111.176L529.977,98.993L531.265,98.011L533.161,98.339L532.879,97.217L533.067,97.076L534.424,97.217L534.424,96.819L533.862,95.884L533.885,94.995L534.26,94.13L535.173,92.914L535.313,92.376L534.307,86.273L534.4,84.8L534.869,83.327L534.798,82.227L535.197,79.842L534.798,75.704L537.28,67.168L538.144,66.21L539.057,66.046L540.486,66.794L541.235,67.707L541.749,68.338L543.95,68.432L546.501,67.005L547.133,64.853L548.302,64.55L553.709,67.449L556.166,75.937L558.881,85.454L561.643,85.945L562.462,88.681L562.908,89.453Z"/>
    <path id="NH" class="state" d="M527.568,100.045L527.1,100.887L526.701,103.833L527.193,104.791L526.444,107.059L527.755,108.976L527.615,110.029L525.719,112.858L524.127,113.842L524.478,118.494L522.886,124.807L523.752,132.103L523.285,134.184L524.548,135.751L535.83,133.202L537.14,131.659L538.99,130.232L539.973,130.186L540.042,127.309L539.012,126.491L538.802,125.276L536.789,123.124L536.555,121.253L533.582,111.175L529.978,98.992L529.487,99.367L527.568,100.045Z"/>
    <path id="MA" class="state" d="M546.408,145.785L545.729,145.808L543.577,147.982L542.242,148.59L541.516,148.637L540.884,147.047L539.973,146.673L538.169,145.878L537.936,144.592L537.491,144.615L537.023,142.745L533.021,143.656L523.729,145.691L523.541,146.392L523.097,145.808L516.59,147.164L516.287,147.211L516.918,137.366L524.548,135.753L535.83,133.204L537.14,131.661L538.99,130.234L539.973,130.188L541.423,132.292L542.71,133.461L541.938,134.139L541.657,135.823L541.12,136.22L540.862,136.992L540.908,137.974L541.212,138.255L543.039,138.652L543.997,139.377L544.676,141.271L545.589,141.669L546.806,143.539L548.795,144.077L550.644,144.124L551.862,143.447L551.978,142.604L551.463,140.546L551.955,140.312L552.259,140.616L553.126,143.05L552.938,143.634L551.16,145.41L550.082,145.503L548.07,146.906L547.112,146.954L546.408,145.785Z"/>
    <path id="RI" class="state" d="M537.438,143.915L536.913,142.228L532.912,143.14L534.769,151.908L534.418,152.165L534.558,153.287L537.694,151.65L538.444,151.16L539.216,150.224L539.614,147.137L541.133,146.071L539.697,144.429L538.544,143.87L537.438,143.915Z"/>
    <path id="DC" class="state" d="M487.568,195.235L487.615,195.258L486.913,194.837L487.663,194.042L489.277,195.187L488.06,196.755L488.06,196.614L487.99,195.819L487.568,195.235Z"/>
    <path id="IN" class="state" d="M390.508,215.325L389.643,215.792L389.76,217.126L388.964,217.382L388.543,218.365L388.332,217.592L387.302,217.71L386.39,216.541L384.377,217.592L383.417,219.323L380.305,217.382L378.665,217.78L378.362,216.986L378.385,218.528L377.752,218.973L377.38,217.944L376.163,218.365L375.225,217.686L374.758,217.99L375.085,219.135L374.523,219.698L373.588,219.276L373.564,219.323L373.049,219.16L373.681,218.902L372.885,218.224L373.657,218.107L373.518,216.167L374.313,215.675L373.728,215.465L374.664,214.81L374.055,213.64L374.571,212.729L375.506,212.87L376.443,210.578L377.589,210.063L377.356,209.198L378.901,206.673L378.385,205.036L378.596,203.913L377.144,201.856L377.94,200.547L377.519,199.26L378.526,198.278L378.058,181.489L377.636,167.015L378.479,167.365L379.719,167.786L381.264,167.833L383.581,166.219L394.324,165.822L404.832,165.284L404.88,165.962L405.885,182.752L406.94,200.781L406.869,200.897L406.19,201.435L406.869,202.465L406.448,203.399L407.383,203.657L407.197,204.965L405.371,205.13L403.381,206.462L402.328,205.737L400.596,206.111L400.97,208.567L399.052,209.899L398.397,211.911L396.805,212.261L396.126,213.594L395.986,215.489L394.699,216.564L392.264,215.372L392.1,214.296L391.141,213.594L391.585,214.413L390.204,214.53L390.508,215.325Z"/>
    <path id="IL" class="state" d="M369.718,228.135L368.758,226.405L369.038,224.954L373.276,223.622L372.456,221.283L373.579,219.272L373.556,219.319L373.041,219.156L373.673,218.898L372.877,218.22L373.649,218.103L373.51,216.163L374.305,215.671L373.72,215.461L374.656,214.806L374.047,213.636L374.563,212.725L375.498,212.866L376.435,210.574L377.581,210.059L377.348,209.194L378.893,206.669L378.377,205.032L378.588,203.908L377.136,201.852L377.932,200.543L377.511,199.256L378.518,198.274L378.05,181.485L377.628,167.011L376.996,165.957L376.271,163.69L374.61,159.668L374.563,157.119L360.496,157.353L346.5,157.376L348.513,158.92L348.841,160.322L351.158,162.053L351.438,163.737L350.901,166.074L349.754,167.033L349.262,169.185L346.032,170.868L342.358,171.523L341.703,173.838L343.129,175.522L343.199,177.369L341.749,179.1L341.211,181.274L338.496,182.583L338.8,184.851L337.818,185.366L337.279,188.616L338.636,193.901L341.446,196.497L342.076,197.666L344.675,199.607L345.611,203.957L346.313,205.102L347.038,205.195L348.28,204.073L350.012,204.634L351.532,205.781L351.461,206.224L350.737,207.394L350.854,208.587L348.887,212.281L349.074,214.033L352.446,217.332L353.639,217.588L357.899,221.213L357.875,222.827L358.787,224.791L357.969,226.708L358.554,227.036L359.419,229.608L360.567,230.309L360.238,229.328L360.684,229.116L361.502,230.473L362.322,230.684L362.157,230.473L361.713,229.281L363.632,227.269L368.571,229.328L369.718,228.135Z"/>
    <path id="WI" class="state" d="M339.808,137.995L340.65,139.819L340.978,143.56L341.68,151.37L342.523,153.802L346.009,155.041L346.618,156.327L346.501,157.38L360.497,157.356L374.564,157.123L374.611,154.808L374.447,153.287L373.721,150.177L373.557,147.184L374.025,144.799L375.429,141.128L375.453,138.79L375.827,136.873L376.81,133.552L376.763,131.985L377.114,129.647L377.98,127.426L379.455,124.783L380.697,121.392L380.228,119.85L377.933,122.609L377.864,124.175L377.489,125.601L376.272,125.836L372.34,129.577L372.317,128.735L373.511,125.999L373.907,125.157L375.031,124.175L376.156,122.001L375.593,121.977L375.615,121.93L374.282,120.878L375.008,118.657L374.751,118.213L372.855,118.516L372.902,117.487L373.511,116.716L373.253,115.804L373.628,115.453L373.253,114.658L373.487,114.26L372.503,113.279L370.468,112.74L370.772,111.759L370.468,111.034L366.653,109.911L365.529,110.216L363.681,109.818L361.06,108.321L351.72,105.842L350.784,103.598L349.778,102.873L349.193,103.037L349.052,102.569L345.705,102.172L345.003,102.873L344.793,102.452L345.308,100.558L345.238,99.014L344.232,97.986L337.982,101.751L335.828,102.195L334.448,101.985L333.769,100.886L332.927,100.114L332.458,101.236L331.733,101.19L331.499,108.906L330.843,109.654L327.66,111.081L326.724,112.904L325.788,113.723L325.648,115.406L326.935,115.804L327.801,117.605L326.794,119.381L326.794,121.743L326.256,122.304L326.654,124.269L325.999,126.537L326.794,127.73L328.855,128.594L329.861,130.068L331.476,129.998L332.974,130.84L334.822,132.991L335.478,134.768L339.808,137.995Z"/>
    <path id="OH" class="state" d="M438.558,197.435L438.698,198.442L438.019,198.815L438.768,200.733L438.066,200.547L437.154,201.528L436.943,200.102L435.773,199.962L434.228,203.189L434.835,205.34L433.854,205.807L433.501,207.725L430.787,208.38L429.453,206.743L428.026,206.299L427.16,204.148L425.849,204.638L424.726,206.065L423.134,206.486L420.84,205.177L419.763,205.574L419.436,206.299L418.43,206.089L416.978,204.638L413.398,204.171L412.321,201.669L410.706,200.453L409.021,201.038L407.734,200.196L406.868,200.897L406.939,200.781L405.884,182.752L404.878,165.962L418.735,165.027L421.472,165.775L422.853,166.828L423.766,167.038L425.1,166.851L425.615,167.459L429.078,167.716L432.378,166.29L435.375,166.009L441.367,161.449L444.713,159.509L447.311,158.737L449.277,176.532L449.253,176.508L448.106,176.976L447.78,177.468L448.692,178.987L448.481,179.922L448.878,181.044L447.849,184.155L447.872,186.423L447.381,186.54L447.544,187.264L446.937,188.598L447.381,189.229L447.053,190.585L443.8,193.952L442.396,194.747L441.367,193.952L440.335,195.87L439.189,196.175L438.558,197.435Z"/>
    <path id="MI" class="state" d="M405.348,113.135L404.247,113.439L403.896,113.112L401.883,112.668L399.941,112.995L399.098,114.141L399.145,115.075L399.402,115.988L400.315,117.087L400.01,117.624L397.811,118.677L396.266,119.121L396.289,121.484L396.103,123.284L395.26,124.312L394.699,124.874L394.441,124.36L394.114,122.02L393.645,121.109L392.849,121.647L391.96,122.746L389.737,124.382L389.479,125.926L388.589,127.142L388.684,128.919L388.426,130.064L388.309,132.286L388.567,132.894L387.607,133.713L387.35,136.986L386.553,140.868L388.028,144.96L389.174,146.644L389.784,148.234L389.737,154.36L388.192,159.13L386.343,162.942L386.085,164.462L383.581,166.215L394.324,165.818L404.832,165.28L404.879,165.957L418.736,165.023L419.437,163.737L421.637,161.047L421.59,158.967L422.269,156.815L423.182,155.763L423.088,154.524L423.323,153.542L424.329,152.372L426.482,152.185L427.348,147.181L427.325,145.872L427.043,146.269L426.435,145.427L425.733,143.978L424.868,140.283L424.563,138.249L423.649,136.285L421.24,133.081L419.764,133.432L417.003,134.858L416.723,135.163L415.739,138.062L414.545,138.997L413.516,139.512L412.322,139.161L411.83,138.436L412.135,136.799L412.861,135.046L415.155,132.871L415.739,131.117L416.723,129.854L417.05,128.755L416.91,127.001L415.856,123.284L415.247,122.254L415.012,120.922L415.481,120.15L415.786,120.033L414.452,117.859L413.236,116.9L410.567,116.081L409.467,115.31L408.6,115.075L406.306,113.463L405.348,113.135ZM396.498,98.995L397.924,98.972L398.394,99.907L398.511,101.708L400.078,102.433L401.342,102.643L403.753,102.176L405.064,102.082L405.508,102.643L405.696,103.437L406.163,104.257L406.398,106.151L407.474,106.712L408.153,107.6L409.019,108.045L409.23,108.536L409.16,108.63L408.036,108.723L404.994,109.775L404.22,108.91L403.355,108.442L402.98,109.191L402.887,110.43L401.529,110.524L400.757,109.635L400.242,109.378L398.441,108.559L396.333,108.161L394.321,108.699L393.267,110.173L390.622,110.64L388.283,111.482L385.427,114.779L384.491,114.92L384.445,111.646L383.274,112.722L381.963,113.353L381.449,113.283L379.763,115.294L376.16,122.005L375.597,121.981L375.619,121.934L374.286,120.882L375.012,118.661L374.755,118.217L372.859,118.52L372.906,117.491L373.515,116.72L373.257,115.808L373.632,115.457L373.257,114.662L373.491,114.264L372.507,113.283L370.472,112.744L370.776,111.763L370.472,111.038L366.657,109.915L365.533,110.22L363.685,109.822L361.064,108.325L351.724,105.846L350.788,103.602L349.782,102.877L349.197,103.041L349.056,102.573L351.209,102.386L354.463,100.071L356.499,99.37L359.027,98.831L360.806,97.406L362.63,96.376L364.597,94.084L367.077,92.33L368.951,91.279L370.753,90.624L372.554,90.508L372.952,90.577L372.882,91.372L371.384,92.518L368.763,95.815L367.663,96.424L366.891,97.546L366.726,99.58L366.821,100.235L368.108,98.902L368.927,99.113L371.548,98.551L374.661,100.188L375.691,101.778L377.703,103.602L379.224,103.251L383.321,103.906L384.234,103.578L385.286,102.222L386.785,101.615L388.376,100.539L393.525,100.328L394.952,99.978L396.498,98.995Z"/>
    <path id="KY" class="state" d="M410.708,200.455L409.023,201.04L407.736,200.198L406.87,200.899L406.191,201.437L406.87,202.467L406.449,203.401L407.384,203.659L407.198,204.968L405.372,205.132L403.382,206.464L402.329,205.739L400.597,206.113L400.971,208.569L399.053,209.901L398.398,211.913L396.806,212.263L396.127,213.596L395.987,215.491L394.701,216.566L392.265,215.374L392.101,214.298L391.142,213.596L391.586,214.415L390.205,214.532L390.509,215.327L389.644,215.794L389.761,217.128L388.965,217.384L388.544,218.367L388.333,217.594L387.303,217.712L386.391,216.543L384.378,217.594L383.418,219.325L380.306,217.384L378.666,217.782L378.363,216.988L378.386,218.53L377.753,218.975L377.38,217.946L376.164,218.367L375.226,217.688L374.759,217.992L375.086,219.137L374.524,219.7L373.588,219.278L372.465,221.289L373.285,223.628L369.047,224.96L368.767,226.411L369.727,228.141L368.58,229.334L363.641,227.275L361.722,229.287L362.166,230.479L362.331,230.69L362.214,233.286L360.997,236.021L359.57,235.272L358.796,236.932L373.987,236.746L373.565,234.198L375.929,234.361L376.14,234.829L389.785,234.43L390.299,233.917L405.138,233.286L420.89,232.373L426.718,231.016L427.349,229.567L429.41,228.725L429.526,227.579L430.907,226.691L430.954,225.593L434.324,223.441L438.303,219.442L438.303,219.489L436.477,219.255L435.939,218.389L434.674,217.875L434.347,216.706L432.381,214.648L432.498,213.994L430.508,211.771L431.117,210.557L430.766,208.289L430.789,208.382L429.455,206.745L428.028,206.301L427.162,204.15L425.851,204.639L424.728,206.067L423.136,206.488L420.842,205.178L419.765,205.576L419.438,206.301L418.432,206.091L416.98,204.639L413.4,204.173L412.323,201.671L410.708,200.455Z"/>
    <path id="TN" class="state" d="M372.738,256.575L386.85,256.224L400.963,255.71L415.24,254.984L415.428,252.085L415.99,251.524L417.721,251.477L418.329,249.303L419.641,247.994L421.185,247.268L423.876,247.011L427.294,244.205L429.166,243.784L429.962,242.358L429.915,241.469L431.015,241.657L431.366,240.675L432.794,239.762L433.637,241.071L436.352,238.476L437.287,238.102L438.739,238.733L440.329,235.882L441.314,235.062L442.39,235.179L441.946,234.408L442.412,233.215L442.133,232.654L442.6,230.69L420.882,232.373L405.13,233.286L390.291,233.917L389.777,234.43L376.132,234.829L375.921,234.361L373.557,234.198L373.979,236.746L358.787,236.932L358.461,237.611L358.203,236.184L357.453,236.302L357.947,238.617L356.87,239.224L357.548,240.206L356.191,240.393L357.103,241.82L355.77,243.573L356.495,244.884L355.255,245.14L355.886,245.701L355.606,246.146L353.406,247.246L353.945,248.462L353.336,248.975L353.71,249.911L352.728,250.075L351.533,252.319L351.79,255.196L350.878,255.289L350.527,256.224L349.427,256.716L360.146,256.716L372.738,256.575Z"/>
    <path id="GA" class="state" d="M427.318,256.135L428.417,255.339L428.722,254.145L428.698,254.145L415.24,254.987L400.963,255.713L404.054,269.462L407.025,282.44L408.196,287.093L409.928,289.97L409.599,291.139L410.794,291.98L409.062,293.944L408.758,296.983L409.553,299.323L409.156,306.712L410.325,309.003L411.029,311.342L412.057,312.745L442.577,313.002L442.952,314.943L443.513,315.621L444.941,315.387L445.152,312.768L444.637,310.547L445.433,309.378L449.108,310.337L450.745,310.337L450.582,307.015L451.588,304.864L452.009,302.362L452.476,300.561L454.584,294.366L455.778,292.378L456.409,292.168L453.531,291.045L453.366,288.449L451.939,285.831L449.973,284.778L449.857,283.049L448.498,280.383L448.545,279.611L445.386,277.881L445.269,277.225L444.332,276.733L444.286,275.916L443.185,275.331L443.185,273.882L439.956,271.565L439.908,271.565L438.692,269.695L435.743,267.919L435.251,267.054L435.275,267.054L433.542,265.159L432.419,262.681L432.419,262.727L431.648,261.161L429.986,261.208L428.37,259.733L426.147,258.402L427.318,256.135Z"/>
    <path id="FL" class="state" d="M430.598,328.005L432.938,330.6L434.319,331.465L436.94,332.354L437.478,333.149L437.946,334.74L438.461,338.714L437.782,346.221L437.876,347.531L438.414,349.752L438.508,349.962L439.491,349.962L439.537,347.905L440.544,348.185L441.456,348.933L440.732,351.762L440.473,353.727L440.919,356.042L442.136,358.24L445.389,362.402L445.833,362.589L447.425,361.84L448.198,365.606L449.227,365.185L449.438,365.348L448.9,366.401L448.759,367.219L450.795,369.908L451.78,372.76L452.528,374.118L453.698,375.287L455.593,375.287L456.881,376.361L459.431,381.086L459.502,383.891L459.737,384.359L460.696,385.014L463.551,384.828L465.657,384.126L468.302,382.606L470.057,383.283L470.923,381.553L469.87,380.782L470.618,376.292L471.812,371.615L471.766,367.196L471.112,362.729L471.017,359.806L466.5,350.429L464.253,346.828L463.481,344.093L463.504,340.421L463.012,338.481L461.186,335.488L456.95,329.736L453.369,321.505L450.35,311.636L450.748,310.328L449.112,310.328L445.436,309.37L444.64,310.538L445.155,312.759L444.944,315.378L443.516,315.612L442.955,314.934L442.58,312.994L412.061,312.736L411.032,311.333L410.328,308.995L394.601,309.602L380.394,309.977L380.253,311.894L382.922,314.537L382.431,316.196L382.758,318.348L384.513,316.57L385.614,316.361L386.666,315.448L386.948,315.471L387.018,315.986L386.433,317.578L387.954,317.482L392.565,316.173L394.928,316.219L395.888,316.524L395.794,317.249L395.116,317.578L395.28,317.904L396.707,318.721L399,319.516L404.571,322.323L405.532,323.305L406.772,325.385L407.684,326.064L410.633,325.293L413.652,324.615L416.577,322.91L417.817,322.814L418.005,322.673L418.123,321.575L419.223,320.71L421.071,320.475L422.171,320.593L424.325,321.295L425.915,322.603L428.116,324.989L429.217,325.479L429.473,327.514L430.598,328.005Z"/>
    <path id="AL" class="state" d="M371.338,318.285L373.164,318.518L373.984,318.052L375.692,311.13L376.161,312.509L376.161,314.403L376.721,317.068L376.65,317.957L376.137,319.36L376.441,320.039L378.337,319.781L382.76,318.355L382.433,316.203L382.924,314.544L380.255,311.901L380.396,309.984L394.603,309.609L410.33,309.001L409.161,306.71L409.558,299.321L408.763,296.982L409.067,293.942L410.799,291.978L409.605,291.137L409.933,289.968L408.201,287.091L407.03,282.438L404.059,269.46L400.968,255.711L386.855,256.225L372.743,256.576L373.937,257.978L372.251,276.101L370.121,298.152L371.338,318.285Z"/>
    <path id="NJ" class="state" d="M503.498,166.855L502.819,167.416L502.913,168.444L502.843,168.422L503.265,169.964L504.387,169.988L504.973,171.672L505.839,171.789L508.811,174.571L506.096,177.073L505.323,178.172L505.605,178.733L505.371,179.131L503.311,180.089L502.819,180.698L502.305,181.353L501.579,183.27L502.211,184.042L503.732,185.397L505.184,186.59L506.776,186.801L508.133,187.736L510.052,187.502L510.426,190.028L510.753,190.565L511.877,188.812L513.258,185.188L514.451,183.737L514.92,182.288L514.756,181.54L515.646,180.884L515.903,180.3L515.927,176.536L516.16,175.951L516.605,176.044L516.933,175.811L517.166,172.958L517.143,171.952L516.722,171.11L515.53,170.013L514.1,169.567L513.843,169.216L513.702,168.422L514.172,166.738L514.615,166.083L515.201,162.014L506.237,158.414L505.137,159.862L504.154,162.716L502.843,164.212L503.826,165.569L503.498,166.855Z"/>
    <path id="PA" class="state" d="M504.158,162.715L505.141,159.861L506.241,158.412L505.632,157.64L503.128,157.243L501.981,155.746L501.77,153.525L501.231,153.431L501.397,152.916L499.594,152.59L499.196,151.561L497.886,151.186L490.373,152.472L480.824,154.015L471.766,155.348L463.504,156.471L454.751,157.593L454.328,154.039L452.853,155.278L450.889,155.722L449.555,157.219L447.308,158.739L449.274,176.534L450.608,188.857L461.281,187.664L499.009,182.333L499.032,182.333L500.226,180.439L501.513,180.135L502.824,180.696L503.315,180.088L505.375,179.129L505.609,178.732L505.327,178.17L506.1,177.072L508.815,174.569L505.843,171.787L504.977,171.67L504.391,169.986L503.269,169.963L502.847,168.42L502.917,168.443L502.824,167.414L503.502,166.853L503.83,165.567L502.847,164.211L504.158,162.715Z"/>
    <path id="DE" class="state" d="M502.218,184.035L502.078,185.391L502.638,186.795L505.939,191.214L508.327,193.669L509.918,196.802L509.474,198.065L502.476,199.164L499.035,182.328L500.229,180.434L501.515,180.13L502.827,180.692L502.312,181.346L501.586,183.263L502.218,184.035Z"/>
    <path id="MD" class="state" d="M508.418,203.915L508.068,202.186L509.355,199.754L509.472,198.07L502.474,199.169L499.033,182.333L499.01,182.333L461.282,187.665L461.305,187.665L461.984,194.539L461.984,194.585L463.879,192.971L465.517,190.587L466.078,190.26L467.062,190.61L468.42,188.857L468.654,187.829L469.099,188.109L469.029,188.693L470.877,189.09L470.9,189.09L472.001,188.904L472.352,188.506L472.023,188.226L472.493,187.992L472.211,187.617L473.733,187.337L474.599,186.285L476.704,187.29L478.203,186.986L478.367,187.454L477.946,187.711L478.249,188.272L478.577,187.968L478.624,188.482L479.186,188.365L478.906,189.138L479.631,189.441L479.794,190.587L481.785,190.727L482.884,191.475L482.509,192.785L483.305,193.581L485.13,193.72L485.786,194.539L486.91,194.843L487.66,194.048L489.273,195.193L488.057,196.761L488.057,196.62L488.15,197.532L487.378,198L487.285,199.473L487.354,200.034L487.003,201.344L487.495,201.718L488.969,201.835L491.216,202.676L492.316,202.489L493.135,203.143L494.539,203.331L495.686,204.243L497.09,204.687L495.896,201.718L494.328,200.665L495.265,200.432L495.265,200.221L494.726,199.169L494.095,196.9L493.861,191.78L493.088,190.376L494.516,189.418L496.576,187.033L497.068,185.56L497.535,184.671L497.957,184.648L498.494,184.999L498.682,185.396L498.494,186.565L498.144,187.314L497.254,187.945L496.693,189.067L496.81,190.096L497.371,191.054L497.349,191.827L496.225,193.581L496.622,194.094L497.676,193.954L497.957,194.259L498.097,195.637L498.541,197.088L497.77,197.859L497.418,198.607L497.395,199.613L497.839,200.783L499.29,201.999L500.836,201.788L501.656,202.044L502.871,203.938L503.176,205.249L503.691,205.646"/>
    <path id="WV" class="state" d="M461.308,187.665L461.986,194.539L461.986,194.585L463.881,192.971L465.519,190.587L466.08,190.26L467.064,190.61L468.422,188.857L468.656,187.828L469.101,188.109L469.031,188.693L470.879,189.09L470.902,189.09L472.003,188.904L472.354,188.506L472.026,188.225L472.495,187.991L472.213,187.616L473.735,187.337L474.601,186.284L476.706,187.291L478.205,186.986L478.369,187.453L477.948,187.711L478.251,188.273L478.579,187.968L478.626,188.483L479.188,188.365L478.908,189.137L479.633,189.441L479.796,190.587L479.164,193.182L473.501,189.698L473.079,193.86L471.535,196.55L470.621,197.415L470.13,197.251L469.054,199.449L467.65,198.725L465.286,204.781L462.922,204.29L462.384,203.191L461.26,202.956L461.026,205.132L460.113,206.792L460.206,207.47L459.06,208.849L458.569,211.094L456.603,213.878L455.877,215.794L456.672,216.518L455.83,217.384L456.251,217.992L454.496,219.419L453.654,218.975L451.454,220.354L450.26,219.886L449.979,220.284L450.26,220.985L449.909,221.359L446.632,222.717L444.971,221.569L444.502,222.482L442.327,223.581L439.962,222.669L438.885,221.687L438.792,220.799L438.16,220.378L438.534,219.793L438.301,219.489L436.474,219.255L435.937,218.389L434.672,217.875L434.345,216.706L432.379,214.648L432.496,213.994L430.506,211.771L431.115,210.556L430.764,208.289L430.787,208.382L433.502,207.727L433.854,205.809L434.836,205.342L434.228,203.191L435.773,199.964L436.943,200.104L437.154,201.53L438.066,200.549L438.768,200.735L438.019,198.817L438.698,198.444L438.558,197.437L439.189,196.177L440.336,195.872L441.367,193.954L442.396,194.749L443.8,193.954L447.053,190.587L447.381,189.231L446.937,188.599L447.544,187.266L447.381,186.543L447.872,186.425L447.849,184.156L448.878,181.047L448.481,179.924L448.692,178.989L447.78,177.469L448.106,176.978L449.253,176.51L449.277,176.533L450.611,188.857L461.284,187.665L461.308,187.665Z"/>
    <path id="NC" class="state" d="M432.448,253.135L433.219,252.269L435.818,251.474L436.239,250.797L447.825,250.539L450.937,250.515L451.265,251.779L452.294,250.867L454.12,252.878L454.237,254.748L466.548,253.533L480.332,265.037L481.433,264.546L484.873,263.705L488.454,261.459L488.641,260.218L489.04,259.379L490.045,258.232L490.911,256.384L492.386,255.029L495.85,252.714L499.993,251.943L502.754,249.603L502.965,248.341L502.707,246.938L500.952,246.844L499.993,247.406L499.876,247.874L499.736,247.359L499.689,246.237L500.485,245.208L500.718,244.319L501.561,243.267L500.718,242.566L497.395,241.654L499.899,241.349L501.046,240.04L501.678,241.301L502.474,241.279L503.222,242.074L505.211,241.747L506.289,240.927L507.786,238.239L508.77,237.35L508.512,235.595L508.09,234.335L507.083,233.166L506.289,234.427L505.586,236.627L505.423,236.649L504.931,235.901L504.323,233.399L499.548,234.943L498.307,234.872L497.792,233.305L497.395,230.406L497.745,229.845L498.728,232.486L499.478,232.93L500.554,232.791L503.129,230.664L503.924,230.639L503.878,229.868L505.142,230.148L506.266,230.032L507.131,231.412L507.154,231.248L506.593,229.845L505.749,228.793L505.165,227.039L504.72,226.548L504.862,223.227L496.436,224.49L488.009,225.659L477.641,226.992L467.835,228.161L458.894,229.12L449.415,230.078L442.604,230.687L442.137,232.651L442.416,233.212L441.95,234.405L442.394,235.176L441.318,235.059L440.334,235.879L438.743,238.73L437.291,238.099L436.356,238.473L433.641,241.068L432.798,239.759L431.37,240.672L431.019,241.654L429.919,241.466L429.966,242.355L429.17,243.781L427.298,244.202L423.88,247.008L421.189,247.265L419.645,247.991L418.334,249.3L417.725,251.474L415.994,251.521L415.432,252.082L415.244,254.981L428.702,254.139L432.142,252.854L432.448,253.135Z"/>
    <path id="SC" class="state" d="M435.818,251.475L433.219,252.271L432.448,253.137L432.142,252.856L428.702,254.141L428.726,254.141L428.421,255.335L427.322,256.131L426.151,258.398L428.374,259.73L429.99,261.204L431.652,261.157L432.423,262.723L432.423,262.677L433.546,265.155L435.279,267.05L435.255,267.05L435.747,267.915L438.696,269.691L439.912,271.562L439.96,271.562L443.19,273.878L443.19,275.327L444.29,275.912L444.336,276.73L445.273,277.221L445.39,277.877L448.549,279.607L448.502,280.379L449.861,283.045L449.976,284.774L451.943,285.827L453.37,288.445L453.535,291.041L456.413,292.164L456.109,291.111L456.32,290.644L458.098,289.474L459.128,289.382L459.691,288.375L459.175,287.323L458.029,285.873L457.888,285.336L458.052,284.937L461.282,284.377L464.511,284.377L465.447,284.003L469.707,279.631L470.152,279.583L471.017,278.811L471.345,277.362L473.148,276.52L474.247,275.374L474.693,273.995L474.108,272.895L475.254,271.82L476.214,269.435L477.501,267.657L480.122,266.021L480.332,265.039L466.548,253.535L454.237,254.75L454.119,252.88L452.294,250.869L451.265,251.781L450.937,250.517L447.825,250.541L436.239,250.799L435.818,251.475Z"/>
    <path id="VA" class="state" d="M455.828,217.385L456.669,216.519L455.874,215.795L456.6,213.879L458.566,211.095L459.057,208.849L460.203,207.471L460.11,206.793L461.023,205.133L461.257,202.957L462.381,203.192L462.919,204.291L465.283,204.782L467.647,198.726L469.051,199.45L470.127,197.252L470.619,197.416L471.532,196.551L473.076,193.862L473.498,189.699L479.162,193.183L479.793,190.588L481.784,190.728L482.883,191.476L482.508,192.786L483.304,193.582L485.129,193.721L485.785,194.54L486.909,194.844L487.611,195.264L487.564,195.242L487.986,195.826L488.056,196.621L488.149,197.533L487.377,198.001L487.284,199.474L486.581,199.965L486.182,201.251L486.3,201.789L486.699,202.303L490.022,203.426L492.081,204.852L494.164,205.155L496.715,205.951L497.932,207.167L498.284,208.359L498.026,210.838L497.324,211.119L497.348,211.33L497.838,212.826L498.845,213.293L499.781,214.837L499.08,214.907L498.353,215.397L498.447,216.17L498.938,217.268L499.992,217.642L500.367,218.414L499.594,218.929L497.675,219.256L497.651,220.262L498.798,220.822L499.968,221.033L500.342,220.471L500.788,220.308L504.227,220.637L504.861,223.231L496.435,224.494L488.008,225.663L477.64,226.996L467.834,228.165L458.893,229.124L449.414,230.082L442.603,230.691L420.885,232.374L426.713,231.017L427.344,229.568L429.405,228.726L429.521,227.58L430.902,226.692L430.949,225.594L434.319,223.442L438.298,219.443L438.298,219.49L438.531,219.794L438.157,220.379L438.789,220.8L438.882,221.688L439.959,222.67L442.324,223.582L444.499,222.483L444.968,221.571L446.629,222.718L449.906,221.36L450.257,220.986L449.976,220.285L450.257,219.887L451.451,220.355L453.651,218.976L454.494,219.42L456.248,217.993L455.828,217.385ZM503.688,205.645L504.623,205.879L504.459,207.048L503.688,207.492L503.336,208.263L502.213,213.011L502.471,214.671L503.15,216.589L503.641,217.032L504.601,216.775L505.162,216.168L505.583,215.115L506.167,210.111L508.532,203.791L503.688,205.645Z"/>
    <path id="AR" class="state" d="M346.668,260.475L347.721,260.405L347.721,259.378L349.897,258.067L349.43,256.712L350.53,256.22L350.881,255.285L351.793,255.192L351.536,252.315L352.731,250.071L353.713,249.907L353.339,248.971L353.949,248.457L353.409,247.242L355.609,246.142L355.889,245.698L355.258,245.136L356.498,244.88L355.773,243.569L348.68,243.569L349.617,242.096L352.145,239.782L352.145,238.543L351.045,236.765L342.01,236.718L333,236.578L323.475,236.344L313.012,236.017L303.135,235.595L303.955,250.702L302.901,273.992L303.721,275.137L306.014,274.81L307.606,275.348L307.325,282.62L323.357,283.088L339.928,283.345L339.811,281.942L340.559,281.194L340.419,279.977L339.6,279.323L340.185,277.172L339.037,276.096L339.905,275.768L339.997,275.184L339.084,274.413L340.934,272.986L341.379,271.022L340.7,270.391L343.017,269.573L343.133,268.871L342.174,268.239L343.228,267.538L343.672,266.463L344.305,266.533L344.305,265.293L346.365,264.614L346.223,261.902L346.668,260.475Z"/>
    <path id="MN" class="state" d="M341.358,94.083L348.451,88.565L351.656,87.395L355.425,84.051L354.628,84.051L352.312,82.953L348.099,82.812L345.314,81.737L343.722,81.783L341.662,82.859L340.585,82.976L338.666,81.971L337.356,80.357L335.437,79.725L334.29,78.721L332.863,78.229L332.019,77.738L331.201,76.615L329.679,75.634L328.134,74.979L323.992,74.441L322.611,75.212L320.926,75.259L319.756,74.838L319.779,74.628L319.428,74.23L317.439,73.529L316.62,73.015L315.052,73.202L314.327,73.155L314.116,72.875L312.805,72.944L311.587,69.414L311.33,69.155L309.786,63.872L308.639,63.544L307.983,63.498L307.585,69.296L297.965,68.594L289.212,67.822L289.189,67.822L290.032,71.986L289.353,73.458L289.048,78.626L290.874,86.343L290.476,93.966L290.57,95.252L290.944,95.416L290.243,99.017L290.781,101.87L291.717,103.507L291.88,105.658L291.693,108.628L291.39,109.913L291.39,109.96L290.523,111.176L288.791,112.252L288.486,113.023L289.845,115.572L291.272,116.204L291.974,117.28L291.108,127.99L290.079,141.224L293.144,141.458L302.061,142.066L311.495,142.58L320.083,142.978L328.228,143.259L337.144,143.492L340.984,143.562L340.656,139.821L339.814,137.997L335.484,134.771L334.828,132.993L332.98,130.842L331.482,130L329.867,130.07L328.861,128.597L326.8,127.732L326.005,126.539L326.66,124.271L326.262,122.307L326.8,121.746L326.8,119.384L327.807,117.607L326.941,115.806L325.654,115.409L325.794,113.726L326.73,112.907L327.666,111.083L330.849,109.655L331.505,108.909L331.739,101.192L332.464,101.239L332.933,100.116L333.775,100.888L334.992,99.555L341.358,94.083Z"/>
    <path id="NE" class="state" d="M292.858,170.455L293.303,168.865L292.554,168.56L292.554,167.602L291.735,167.625L291.688,165.661L292.25,164.211L291.407,162.808L291.571,161.756L290.565,160.82L290.542,159.885L289.793,158.902L290.026,157.617L289.324,156.401L289.558,154.647L288.739,154.39L287.405,154.086L286.75,152.075L282.677,150.228L281.577,148.941L275.726,148.521L274.837,149.502L274.065,149.527L270.624,147.328L269.641,146.089L269.618,146.112L265.92,145.668L256.98,144.662L248.835,143.679L240.222,142.511L230.813,141.155L221.919,139.752L215.764,138.723L213.54,152.004L211.34,165.497L221.498,167.134L231.421,168.607L229.643,181.514L238.982,182.754L248.882,183.946L257.915,184.928L266.458,185.794L275.843,186.636L285.791,187.431L295.176,188.062L297.235,188.178L297.422,187.173L296.673,186.027L296.814,185.443L295.012,184.344L294.802,181.585L294.099,181.233L294.122,180.369L294.076,179.621L293.139,178.591L293.818,176.604L293.491,174.336L293.748,172.628L293.023,172.231L293.654,170.922L292.858,170.455Z"/>
    <path id="MO" class="state" d="M357.108,241.815L356.196,240.388L357.553,240.201L356.875,239.219L357.952,238.612L357.459,236.297L358.208,236.179L358.466,237.606L358.793,236.927L359.567,235.266L360.994,236.016L362.211,233.281L362.328,230.685L361.508,230.474L360.69,229.118L360.244,229.329L360.573,230.31L359.425,229.609L358.561,227.037L357.975,226.709L358.793,224.792L357.881,222.828L357.905,221.214L353.645,217.589L352.452,217.333L349.08,214.035L348.893,212.282L350.86,208.588L350.743,207.395L351.467,206.224L351.538,205.782L350.018,204.635L348.286,204.074L347.044,205.196L346.319,205.103L345.617,203.958L344.681,199.608L342.082,197.667L341.452,196.498L338.642,193.902L337.285,188.618L337.824,185.368L335.6,182.795L335.108,182.094L328.789,181.954L319.802,181.672L309.924,181.252L300.586,180.761L294.126,180.364L294.102,181.228L294.806,181.579L295.016,184.339L296.818,185.438L296.678,186.022L297.427,187.168L297.24,188.173L299.393,190.045L300.306,190.629L301.92,190.301L302.599,192.406L301.594,192.406L300.001,194.838L302.037,197.2L302.622,199.468L304.893,200.333L304.214,213.498L303.441,228.978L303.138,235.594L313.015,236.016L323.477,236.343L333.002,236.577L342.012,236.717L351.047,236.764L352.147,238.542L352.147,239.781L349.619,242.095L348.682,243.568L355.775,243.568L357.108,241.815Z"/>
    <path id="IA" class="state" d="M300.588,180.765L294.128,180.368L294.082,179.62L293.145,178.59L293.825,176.603L293.497,174.335L293.753,172.627L293.028,172.23L293.661,170.921L292.865,170.454L293.309,168.864L292.56,168.559L292.56,167.601L291.742,167.624L291.694,165.66L292.255,164.21L291.413,162.807L291.578,161.755L290.571,160.819L290.547,159.884L289.799,158.901L290.033,157.616L289.33,156.4L289.564,154.646L288.746,154.389L288.815,153.757L288.254,152.822L288.535,152.541L287.435,151.232L288.417,149.759L289.097,147.865L289.026,147.865L289.682,146.251L289.495,145.011L288.604,144.755L288.839,144.426L288.581,143.984L289.026,143.89L289.166,142.837L288.628,141.949L288.628,141.107L290.08,141.224L293.145,141.458L302.062,142.066L311.496,142.58L320.084,142.978L328.229,143.259L337.145,143.492L340.985,143.562L341.688,151.373L342.53,153.804L346.016,155.043L346.625,156.33L346.508,157.382L348.52,158.925L348.849,160.328L351.166,162.059L351.446,163.742L350.909,166.08L349.762,167.039L349.27,169.19L346.04,170.874L342.366,171.529L341.711,173.843L343.137,175.527L343.207,177.375L341.757,179.105L341.219,181.28L338.504,182.589L338.808,184.857L337.826,185.372L335.602,182.799L335.11,182.098L328.791,181.958L319.804,181.676L309.926,181.256L300.588,180.765Z"/>
    <path id="SD" class="state" d="M289.088,147.865L289.018,147.865L289.673,146.253L289.486,145.012L288.597,144.756L288.832,144.427L288.573,143.985L289.018,143.89L289.159,142.839L288.621,141.949L288.621,141.109L290.072,141.224L291.102,127.99L291.967,117.281L291.266,116.205L289.837,115.573L288.48,113.025L288.785,112.253L290.517,111.177L291.382,109.962L291.382,109.914L291.686,108.629L287.731,108.278L279.211,107.483L270.201,106.524L261.705,105.542L253.958,104.536L245.79,103.39L236.849,102.011L228.4,100.608L222.572,99.578L220.349,112.113L218.079,125.207L215.762,138.722L221.917,139.752L230.811,141.155L240.22,142.511L248.833,143.679L256.978,144.661L265.918,145.668L269.616,146.112L269.639,146.089L270.622,147.327L274.063,149.527L274.835,149.503L275.724,148.521L281.575,148.942L282.675,150.228L286.748,152.074L287.403,154.086L288.737,154.389L288.808,153.758L288.246,152.823L288.526,152.543L287.427,151.234L288.41,149.76L289.088,147.865Z"/>
    <path id="ND" class="state" d="M280.038,66.887L272.291,66.001L263.819,64.901L255.814,63.779L253.052,63.357L229.929,59.405L227.659,71.565L225.295,84.448L223.188,96.188L222.579,99.577L228.407,100.607L236.856,102.01L245.797,103.389L253.965,104.535L261.712,105.541L270.208,106.523L279.218,107.482L287.738,108.277L291.693,108.628L291.881,105.657L291.717,103.507L290.78,101.869L290.242,99.016L290.945,95.416L290.57,95.253L290.476,93.967L290.874,86.343L289.049,78.627L289.353,73.459L290.031,71.987L289.189,67.823L289.213,67.823L287.363,67.636L280.038,66.887Z"/>
    <path id="UT" class="state" d="M151.008,204.075L149.955,209.266L143.285,207.793L134.532,205.805L125.31,203.585L115.2,201.012L105.674,198.487L97.88,196.311L99.518,189.929L102.772,177.535L105.814,166.241L109.067,154.339L112.694,141.314L116.182,129.038L122.268,130.908L131.067,133.481L140.406,136.099L144.97,137.316L141.646,150.738L151.125,153.147L161.33,155.601L158.638,167.901L155.83,180.926L153.326,192.804L151.008,204.075Z"/>
    <path id="KS" class="state" d="M275.848,186.635L266.461,185.793L257.919,184.928L248.887,183.945L238.986,182.753L229.646,181.513L227.986,193.766L226.277,206.72L224.732,218.576L224.287,221.99L225.668,222.177L235.428,223.37L245.772,224.515L255.181,225.474L264.121,226.316L273.929,227.111L284.272,227.859L294.102,228.467L303.441,228.982L304.215,213.502L304.892,200.337L302.622,199.472L302.037,197.204L300.001,194.842L301.594,192.41L302.599,192.41L301.92,190.305L300.306,190.633L299.392,190.049L297.24,188.178L295.181,188.061L285.794,187.43L275.848,186.635Z"/>
    <path id="OK" class="state" d="M281.368,270.955L282.303,272.149L282.633,271.328L283.685,271.423L284.365,270.557L286.68,269.786L288.436,270.465L288.53,269.903L290.614,269.318L291.152,270.231L293.327,270.51L294.685,269.271L297.378,270.791L298.453,272.241L302.901,273.995L303.954,250.705L303.135,235.598L303.439,228.982L294.099,228.467L284.269,227.859L273.926,227.111L264.118,226.316L255.178,225.474L245.769,224.515L235.425,223.37L225.665,222.177L224.284,221.99L213.845,220.587L212.909,227.415L218.761,228.211L228.591,229.472L238.983,230.69L245.045,231.343L242.4,257.252L243.781,257.463L246.215,260.152L247.243,259.801L248.696,260.432L249.421,259.31L250.966,261.157L251.153,262.865L253.352,262.982L255.81,264.267L257.449,264.151L258.829,265.483L260.071,264.641L262.925,264.782L262.995,266.441L264.424,267.027L264.19,268.289L265.125,268.803L267.864,267.307L268.379,267.588L268.426,268.524L269.642,268.639L270.04,269.691L272.708,268.826L272.522,270.231L273.246,271.236L274.205,270.043L273.972,269.506L277.32,268.78L278.348,269.879L281.368,270.955Z"/>
    <path id="NM" class="state" d="M204.528,287.835L206.118,275.021L207.617,263.118L209.302,250.094L210.941,237.771L212.368,227.341L212.907,227.412L213.843,220.584L202.187,218.806L193.341,217.404L183.978,215.838L173.75,213.99L160.738,211.465L149.948,209.266L147.467,221.659L144.893,234.778L142.599,246.75L140.469,258.091L138.199,270.578L135.437,286.081L144.541,287.764L145.664,281.334L164.201,284.374L163.827,281.965L169.701,282.9L180.047,284.491L190.976,286.057L200.946,287.391L204.528,287.835Z"/>
    <path id="CO" class="state" d="M158.638,167.905L161.329,155.606L167.602,157.033L176.707,159.02L186.326,160.984L195.126,162.668L203.481,164.188L211.345,165.498L221.503,167.135L231.426,168.608L229.648,181.515L227.986,193.768L226.277,206.722L224.733,218.578L224.288,221.992L213.85,220.589L202.194,218.811L193.347,217.409L183.985,215.843L173.757,213.995L160.745,211.47L149.955,209.271L151.008,204.08L153.325,192.809L155.83,180.93L158.638,167.905Z"/>
    <path id="WY" class="state" d="M144.968,137.315L141.644,150.737L151.123,153.146L161.328,155.6L167.601,157.027L176.705,159.014L186.324,160.979L195.124,162.663L203.479,164.182L211.344,165.492L213.543,151.999L215.768,138.718L218.084,125.202L220.354,112.107L211.976,110.564L202.941,108.787L194.422,106.987L186.652,105.279L178.484,103.362L169.543,101.14L161.117,98.919L155.289,97.329L153.511,104.064L149.392,119.894L144.968,137.315Z"/>
    <path id="WA" class="state" d="M50.296,31.697L50.647,32.585L49.898,34.362L50.366,34.714L50.787,34.268L51.419,32.374L52.121,31.158L52.121,30.738L51.489,30.573L51.067,30.106L51.021,29.521L51.489,28.352L52.426,27.721L53.104,26.88L52.916,25.827L51.77,26.482L51.653,26.201L52.051,23.792L53.502,18.04L53.736,14.976L53.268,12.732L53.268,11.142L53.572,9.809L54.368,8.312L55.491,7.119L56.475,6.63L57.574,8.405L61.085,12.311L62.442,13.013L64.058,14.392L66.188,15.281L67.755,17.291L69.534,17.876L69.417,19.372L68.551,20.682L68.107,21.01L67.17,21.103L66.539,21.43L63.729,24.004L62.981,25.921L64.128,26.388L64.759,25.452L64.409,25.078L65.158,24.494L67.053,23.955L69.324,22.179L70.306,22.249L70.611,22.553L70.635,23.909L70.774,24.026L71.992,21.992L73.068,19.536L73.466,16.592L73.466,15.982L72.928,15.235L72.459,13.994L72.53,13.784L73.255,13.784L74.332,13.13L75.034,11.68L75.596,11.703L75.994,12.359L76.252,12.241L76.064,11.352L75.034,10.323L73.957,9.809L73.677,8.337L73.724,6.769L82.851,11.306L90.2,14.789L98.018,18.344L105.203,21.501L112.037,24.378L119.831,27.557L113.723,44.3L107.871,60.692L107.333,61.579L107.543,64.666L106.677,65.485L107.005,66.958L88.632,59.709L87.533,60.036L83.226,58.516L82.149,59.055L79.551,58.399L76.719,58.634L74.426,58.072L73.372,56.88L68.059,56.622L67.24,54.728L63.028,52.695L60.968,53.115L58.089,52.741L54.672,49.677L55.843,45.305L55.795,43.761L54.063,40.885L53.361,39.763L52.847,38.29L49.5,36.747L48.797,35.321L49.125,33.964L50.296,31.697Z"/>
    <path id="MT" class="state" d="M133.668,93.965L132.989,92.702L132.848,91.627L133.387,91.299L133.621,90.598L133.457,89.078L132.918,88.844L132.873,87.605L132.217,85.921L132.544,84.963L132.287,84.144L132.685,83.255L132.263,82.788L132.661,81.806L131.351,79.959L131.069,80.589L129.782,81.315L128.612,81.408L127.582,81.993L126.646,80.473L125.804,80.099L126.904,78.368L126.623,77.269L128.612,76.31L128.496,75.703L128.846,74.955L128.261,74.557L128.94,73.224L128.683,72.382L129.431,72.219L129.548,71.096L131.069,68.921L131.046,68.126L131.725,67.939L132.357,66.209L130.064,65.812L129.666,65.204L130.017,64.689L129.712,64.104L128.729,64.291L128.987,63.496L128.05,62.187L128.308,61.064L127.465,59.825L126.272,55.476L124.938,54.354L124.61,52.974L123.58,51.851L124.587,51.501L124.025,50.238L124.797,49.724L124.845,48.274L123.37,43.504L127.84,30.643L144.411,36.652L155.036,40.206L162.76,42.638L170.951,45.117L178.581,47.316L183.684,48.718L191.945,50.892L199.505,52.764L206.689,54.447L214.578,56.201L222.956,57.931L229.931,59.404L227.661,71.564L225.297,84.448L223.19,96.186L222.582,99.577L220.358,112.11L211.98,110.567L202.945,108.79L194.426,106.99L186.656,105.282L178.488,103.365L169.547,101.143L161.121,98.922L155.293,97.332L153.515,104.067L152.438,102.453L152.017,100.232L151.549,99.741L150.449,100.115L150.449,100.746L149.676,101.4L149.863,102.313L148.062,101.494L146.705,101.681L146.166,100.98L144.153,100.816L142.819,99.904L141.883,100.138L141.111,101.05L138.56,99.554L137.787,99.6L136.897,100.161L136.921,100.839L136.64,100.98L135.446,99.296L135.751,98.291L135.306,97.192L135.751,96.584L135.353,94.667L134.58,93.848L133.668,93.965Z"/>
    <path id="AZ" class="state" d="M84.798,221.985L85.196,220.115L85.898,219.973L86.46,217.425L86.671,211.765L87.512,209.802L87.068,208.587L87.841,207.604L89.642,206.341L90.579,207.067L91.608,207.136L92.264,208.89L93.13,209.264L93.808,209.007L95.072,207.324L97.881,196.309L105.675,198.485L115.201,201.01L125.311,203.583L134.533,205.803L143.286,207.791L149.957,209.264L147.475,221.657L144.902,234.776L142.608,246.748L140.478,258.089L138.207,270.576L135.446,286.079L114.03,281.799L75.319,255.096L75.343,253.74L76.63,252.688L78.244,253.319L79.579,251.659L79.836,250.209L77.683,247.94L78.408,246.256L78.034,244.901L78.362,243.498L79.415,243.545L81.077,241.931L81.521,240.248L82.083,239.85L82.504,236.483L83.721,235.876L84.377,234.823L87.841,233.302L87.232,230.473L85.944,228.977L84.47,223.505L84.798,221.985Z"/>
    <path id="CA" class="state" d="M14.674,152.405L15.703,153.037L15.82,153.738L16.359,154.229L17.155,153.949L17.459,153.597L18.582,150.839L21.04,152.032L23.006,153.902L21.485,154.206L20.267,153.995L18.98,154.79L18.793,156.1L19.401,160.309L19.168,161.454L18.067,159.514L17.552,157.76L17.552,156.521L16.85,156.007L16.054,157.409L15.751,158.836L15.938,161.501L15.305,165.593L16.312,168.143L18.489,169.591L18.887,171.93L18.137,174.292L16.523,174.924L15.797,177.59L15.914,178.571L18.395,185.025L19.401,189.724L21.274,193.98L22.21,195.056L21.649,197.394L22.888,198.845L23.427,200.644L23.403,201.182L22.561,202.47L22.093,204.293L21.695,207.403L21.882,208.361L23.006,209.367L26.4,211.262L28.318,213.412L29.418,213.132L30.612,213.786L32.109,215.562L33.655,216.873L34.1,218.463L36.745,220.778L37.657,221.853L38.125,222.906L39.085,221.853L39.95,222.088L40.606,222.789L41.73,224.823L41.519,227.115L41.659,227.582L44.257,228.752L46.106,230.926L47.276,232.727L49.079,236.935L50.342,239.181L50.95,241.543L50.131,247.201L50.155,248.861L75.339,253.749L76.626,252.697L78.24,253.328L79.575,251.668L79.832,250.218L77.679,247.949L78.404,246.265L78.03,244.91L78.358,243.507L79.41,243.554L81.073,241.94L81.517,240.257L82.079,239.86L82.5,236.492L83.717,235.885L84.373,234.832L87.837,233.311L87.228,230.482L85.94,228.986L84.466,223.514L84.794,221.994L77.234,208.923L71.242,198.564L65.742,188.673L60.899,179.6L55.913,169.92L50.624,159.257L45.825,149.062L50.483,135.476L54.906,122.848L59.938,108.842L51.114,105.148L42.173,101.243L30.846,96.052L22.163,91.889L21.859,93.923L20.595,100.658L18.349,104.54L16.757,108.281L14.93,109.894L12.989,111.04L12.263,112.653L12.005,113.705L12.708,115.319L14.042,124.789L13.901,125.912L13.152,126.847L12.263,129.022L11.163,136.762L11.818,138.679L12.38,141.392L14.229,146.303L14.252,148.032L13.596,149.693L13.737,150.604L14.674,152.405Z"/>
    <path id="ID" class="state" d="M134.578,93.849L133.666,93.966L132.987,92.703L132.846,91.628L133.385,91.3L133.619,90.599L133.455,89.079L132.916,88.846L132.87,87.606L132.215,85.922L132.542,84.964L132.284,84.145L132.683,83.256L132.261,82.789L132.659,81.807L131.348,79.96L131.067,80.591L129.78,81.316L128.61,81.409L127.58,81.994L126.644,80.474L125.802,80.1L126.902,78.369L126.62,77.27L128.61,76.311L128.493,75.704L128.844,74.956L128.259,74.558L128.938,73.225L128.68,72.384L129.429,72.22L129.546,71.097L131.067,68.922L131.044,68.127L131.723,67.94L132.355,66.21L130.062,65.813L129.663,65.205L130.015,64.69L129.71,64.105L128.727,64.292L128.985,63.497L128.048,62.188L128.306,61.065L127.463,59.826L126.269,55.477L124.935,54.355L124.608,52.975L123.578,51.852L124.585,51.502L124.023,50.239L124.795,49.725L124.843,48.275L123.367,43.505L127.838,30.644L119.834,27.557L113.725,44.3L107.873,60.691L107.336,61.58L107.546,64.667L106.679,65.485L107.008,66.958L107.359,69.647L108.903,71.237L109.02,73.599L106.142,76.265L104.761,78.51L102.981,80.006L102.538,81.339L101.577,82.391L100.01,83.07L97.155,85.945L96.499,88.565L98.254,89.547L98.676,91.09L97.575,91.909L97.599,93.055L95.984,95.252L87.933,119.595L93.948,121.722L102.631,124.715L111.876,127.684L116.182,129.041L122.268,130.911L131.067,133.484L140.406,136.102L144.97,137.319L149.394,119.898L153.513,104.068L152.436,102.454L152.014,100.233L151.547,99.742L150.447,100.116L150.447,100.747L149.674,101.402L149.861,102.314L148.06,101.495L146.702,101.682L146.163,100.981L144.151,100.817L142.817,99.905L141.881,100.139L141.109,101.052L138.557,99.555L137.785,99.601L136.895,100.162L136.919,100.841L136.638,100.981L135.444,99.298L135.749,98.292L135.304,97.193L135.749,96.585L135.35,94.668L134.578,93.849Z"/>
    <path id="OR" class="state" d="M55.844,45.305L54.673,49.677L58.09,52.74L60.969,53.114L63.029,52.694L67.241,54.729L68.061,56.623L73.373,56.88L74.427,58.072L76.72,58.634L79.552,58.4L82.15,59.054L83.227,58.516L87.534,60.037L88.633,59.71L107.006,66.959L107.357,69.648L108.901,71.237L109.019,73.599L106.14,76.264L104.759,78.51L102.98,80.006L102.536,81.339L101.576,82.391L100.008,83.07L97.153,85.945L96.497,88.565L98.252,89.547L98.674,91.09L97.573,91.908L97.597,93.054L95.982,95.253L87.931,119.594L83.554,118.005L74.427,114.591L65.86,111.247L59.939,108.838L51.115,105.144L42.174,101.239L30.847,96.048L22.164,91.885L22.304,90.996L22.539,86.787L24.153,82.064L24.833,79.141L27.688,74.815L29.303,73.483L30.66,73.249L31.035,71.822L30.754,71.681L30.847,71.425L31.596,70.069L34.381,66.187L35.434,63.966L36.558,62.515L39.671,55.056L41.239,53.163L43.79,47.831L45.007,46.662L45.663,44.72L46.412,43.88L46.13,43.131L46.505,41.962L47.862,39.46L48.424,38.734L49.103,38.571L52.216,39.787L53.667,41.283L54.064,40.885L55.796,43.761L55.844,45.305Z"/>
    <path id="NV" class="state" d="M86.668,211.765L86.457,217.425L85.895,219.973L85.193,220.115L84.795,221.985L77.235,208.914L71.243,198.555L65.743,188.664L60.9,179.591L55.914,169.911L50.625,159.248L45.826,149.053L50.484,135.467L54.907,122.839L59.939,108.833L65.86,111.242L74.427,114.586L83.554,117.999L87.93,119.589L93.946,121.717L102.629,124.71L111.875,127.68L116.18,129.036L112.693,141.312L109.066,154.337L105.812,166.239L102.77,177.534L99.516,189.926L97.878,196.31L95.069,207.324L93.805,209.007L93.127,209.264L92.261,208.89L91.605,207.136L90.576,207.067L89.639,206.341L87.838,207.604L87.065,208.587L87.509,209.802L86.668,211.765Z"/>
    <path id="MS" class="state" d="M340.188,277.175L339.04,276.099L339.908,275.771L340,275.187L339.087,274.416L340.937,272.989L341.382,271.025L340.703,270.394L343.02,269.575L343.136,268.874L342.177,268.242L343.231,267.541L343.675,266.466L344.308,266.536L344.308,265.296L346.367,264.618L346.226,261.905L346.671,260.478L347.724,260.408L347.724,259.381L349.9,258.07L349.433,256.715L360.151,256.715L372.744,256.574L373.938,257.976L372.252,276.099L370.122,298.15L371.339,318.283L364.342,317.955L361.884,319.406L360.128,318.914L357.507,320.247L356.619,317.417L355.167,316.085L354.652,314.635L355.939,310.286L333.845,310.145L333.751,310.216L334.735,309.257L333.915,306.636L335.367,306.217L335.764,304.744L335.367,303.364L336.513,302.428L337.356,299.178L340.515,296.7L340.353,295.063L341.124,295.04L342.576,292.561L340.328,290.691L340.445,289.451L339.65,288.212L340.749,287.556L339.767,286.691L340.749,284.564L339.72,283.909L339.931,283.348L339.814,281.945L340.562,281.197L340.422,279.98L339.603,279.326L340.188,277.175Z"/>
    <path id="LA" class="state" d="M348.518,334.015L347.558,334.015L346.482,334.576L345.359,333.805L343.603,334.67L341.825,334.108L341.216,333.477L338.783,333.313L336.464,329.736L335.13,329.431L333.727,327.887L330.403,326.134L328.367,326.064L327.711,326.743L327.781,327.912L326.425,329.128L323.897,328.987L321.204,328.45L318.935,327.42L314.464,325.948L307.935,326.743L306.881,325.363L308.051,324.335L308.73,322.931L309.572,322.019L309.901,320.967L309.783,319.096L309.339,318.231L310.04,316.85L309.666,315.542L311.726,311.987L311.656,311.029L312.147,310.397L311.703,309.532L312.404,309.181L311.936,308.363L312.217,307.147L311.866,307.031L311.89,307.006L311.492,306.936L310.649,305.299L311,304.598L309.947,303.171L310.228,302.657L309.034,301.559L309.292,300.086L309.01,298.986L306.787,296.087L307.326,282.618L323.358,283.086L339.929,283.343L339.718,283.904L340.747,284.559L339.765,286.686L340.747,287.551L339.648,288.207L340.443,289.446L340.326,290.686L342.574,292.556L341.122,295.035L340.351,295.058L340.513,296.695L337.354,299.173L336.511,302.423L335.365,303.359L335.762,304.739L335.365,306.212L333.913,306.632L334.733,309.252L333.749,310.211L333.843,310.14L355.937,310.281L354.65,314.63L355.165,316.08L356.617,317.412L357.505,320.242L354.229,319.611L351.163,318.161L348.472,319.003L347.839,321.295L349.548,322.766L351.654,322.651L353.316,321.434L354.158,321.341L354.673,321.458L355.212,323.867L356.054,324.006L357.294,322.931L359.775,321.832L360.243,321.948L360.734,322.416L360.197,325.432L357.763,327.211L356.849,328.87L356.804,329.409L358.37,331.442L361.882,333.149L362.841,334.506L362.514,335.488L360.97,336.119L360.104,336.516L357.857,333.547L355.4,332.424L353.878,330.975L352.777,330.975L352.403,331.278L352.544,332.074L352.24,332.753L350.765,334.529L348.518,334.015Z"/>
    <path id="TX" class="state" d="M267.908,376.155L266.973,375.336L266.13,372.905L265.825,371.267L265.544,370.87L264.538,365.094L264.468,362.896L265.497,362.288L265.685,359.693L265.451,359.295L264.117,358.874L263.531,358.453L263.812,357.659L265.405,357.659L265.989,358.337L267.066,357.728L267.464,356.091L267.744,353.239L266.668,351.041L269.781,350.619L271.021,348.514L270.905,347.977L269.64,348.235L269.781,347.229L271.934,346.106L272.682,346.271L273.994,344.89L274.275,344.142L274.742,343.629L276.849,343.558L277.716,343.136L277.903,342.178L276.731,341.08L276.78,340.074L277.154,339.443L278.206,339.98L278.863,340.659L279.05,340.542L279.096,339.606L279.376,339.185L279.845,339.373L280.406,340.424L280.687,340.495L281.389,340.191L281.764,339.232L282.115,339.021L282.443,340.915L285.93,339.934L286.399,340.051L286.21,340.424L285.322,340.892L283.074,341.548L281.32,342.342L280.874,342.881L281.32,343.114L284.971,341.944L288.293,340.401L289.698,339.209L292.741,337.314L293.419,336.38L294.753,333.035L295.316,326.161L295.971,325.552L296.65,325.249L297.164,325.319L297.211,327.821L298.708,327.961L298.264,328.85L296.953,329.341L297.399,329.575L301.635,328.079L304.209,326.768L307.931,326.746L306.877,325.366L308.048,324.338L308.726,322.934L309.569,322.022L309.896,320.97L309.78,319.099L309.335,318.234L310.036,316.854L309.661,315.545L311.722,311.99L311.653,311.032L312.143,310.4L311.699,309.535L312.401,309.184L311.932,308.366L312.214,307.15L311.863,307.034L311.886,307.009L311.489,306.939L310.645,305.302L310.996,304.601L309.944,303.174L310.223,302.66L309.031,301.562L309.287,300.089L309.007,298.989L306.783,296.09L307.322,282.621L307.603,275.349L306.011,274.812L303.718,275.138L302.899,273.993L298.451,272.239L297.375,270.789L294.683,269.269L293.326,270.508L291.15,270.229L290.612,269.316L288.528,269.901L288.434,270.463L286.679,269.784L284.363,270.555L283.683,271.421L282.631,271.326L282.302,272.146L281.366,270.953L278.347,269.877L277.318,268.778L273.97,269.504L274.203,270.041L273.244,271.234L272.519,270.229L272.706,268.824L270.038,269.689L269.64,268.637L268.424,268.521L268.376,267.586L267.862,267.305L265.123,268.801L264.187,268.287L264.422,267.025L262.994,266.439L262.923,264.78L260.069,264.639L258.827,265.481L257.447,264.149L255.808,264.265L253.35,262.979L251.151,262.863L250.964,261.155L249.418,259.308L248.694,260.43L247.242,259.799L246.213,260.15L243.779,257.461L242.397,257.25L245.042,231.341L238.98,230.687L228.589,229.47L218.759,228.209L212.908,227.413L212.369,227.342L210.942,237.772L209.303,250.095L207.618,263.119L206.119,275.022L204.529,287.836L200.947,287.392L190.977,286.058L180.048,284.492L169.702,282.901L163.828,281.966L164.202,284.375L166.168,286.011L166.941,286.573L168.017,289.496L170.452,291.109L171.903,294.055L175.367,298.405L180.89,303.456L182.483,314.562L185.056,319.052L188.426,322.934L193.294,327.12L198.045,328.592L204.177,319.123L204.926,318.397L207.385,317.766L209.678,318.631L219.134,319.286L220.584,321.415L223.862,325.272L225.008,327.634L227.114,329.481L230.367,339.864L233.528,343.956L235.119,348.165L238.63,351.017L241.086,361.774L244.387,367.667L247.85,370.402L250.987,370.94L254.076,373.021L259.927,373.817L263.906,376.06L267.675,376.598L267.908,376.155Z"/>
    <path id="VT" class="state" d="M524.478,118.495L524.127,113.842L525.719,112.859L527.615,110.03L527.755,108.978L526.445,107.061L527.194,104.793L526.701,103.834L526.398,103.904L509.827,107.669L510.224,108.627L509.991,109.422L510.553,110.241L510.622,112.556L511.886,114.543L511.723,115.759L512.191,117.256L511.746,118.05L511.559,120.108L513.103,124.201L512.846,125.65L513.174,126.539L513.993,125.58L514.859,126.539L516.333,136.243L516.918,137.365L524.548,135.752L523.285,134.185L523.752,132.104L522.886,124.808L524.478,118.495Z"/>
    <path id="CT" class="state" d="M516.588,147.165L517.758,157.033L518.647,158.132L516.565,160.096L517.571,161.171L519.467,160.306L521.526,158.74L523.422,157.875L523.96,156.518L525.201,155.653L527.8,155.606L529.906,154.601L534.562,153.291L534.422,152.169L534.773,151.912L533.018,143.657L523.726,145.692L523.538,146.393L523.094,145.809L516.588,147.165Z"/>
    <path id="NY" class="state" d="M519.928,161.575L518.595,162.908L518.595,165.242L517.928,167.242L520.595,166.908L526.928,164.575L531.928,161.575L538.261,157.242L538.261,155.908L535.261,156.575L531.595,158.242L532.595,155.575L530.595,156.242L529.595,157.908L527.928,160.575L524.261,161.242L521.261,161.908L519.928,161.575ZM486.818,126.495L486.772,125.7L486.163,125.162L484.899,125.396L484.525,124.507L485.015,123.199L488.152,120.555L488.901,118.616L488.995,117.492L489.018,117.47L489.345,116.324L492.272,113.821L494.588,110.758L497.092,110.267L509.825,107.671L510.222,108.63L509.989,109.425L510.551,110.244L510.62,112.559L511.884,114.546L511.721,115.763L512.189,117.26L511.743,118.054L511.557,120.111L513.101,124.204L512.844,125.653L513.172,126.542L513.991,125.583L514.856,126.542L516.331,136.246L516.916,137.368L516.285,147.213L516.588,147.166L517.759,157.034L518.648,158.133L516.566,160.097L517.572,161.172L516.846,163.207L515.792,163.394L514.622,166.083L515.208,162.014L506.243,158.414L505.635,157.642L503.131,157.244L501.984,155.748L501.774,153.526L501.235,153.433L501.4,152.917L499.597,152.591L499.199,151.563L497.889,151.188L490.376,152.474L480.827,154.017L471.769,155.35L463.507,156.472L454.754,157.596L454.331,154.041L457.118,151.538L458.733,149.575L459.388,149.364L459.973,148.85L460.489,147.704L462.477,145.318L461.634,143.167L460.675,141.858L459.973,140.244L461.564,139.192L465.051,137.742L468.82,136.762L469.99,136.597L472.634,136.854L474.32,137.813L476.12,136.877L476.778,136.994L480.264,136.316L481.786,135.544L484.29,132.832L487.146,131.78L487.286,130.54L486.677,128.904L485.671,127.992L485.46,127.454L485.601,126.986L486.255,127.01L486.818,126.495Z"/>
    <path id="HI" class="state" d="M200.05,390.205L201.476,388.064L204.666,386.197L209.734,384.607L210.479,382.924L206.911,380.364L206.785,378.558L205.422,377.112L197.323,373.481L196.526,374.048L196.714,375.6L197.449,376.985L194.469,379.966L195.308,381.602L196.61,385.128L196.694,389.113L200.05,390.205ZM191.258,369.411L189.704,369.411L188.97,366.765L186.998,366.409L186.097,365.107L186.914,363.703L187.396,363.472L189.012,365.444L191.615,364.919L194.971,366.724L195.136,367.966L193.459,368.76L191.258,369.411ZM184.78,366.415L184.234,367.171L182.745,367.465L182.514,366.372L181.611,365.681L181.589,365.303L183.395,365.113L184.78,366.415ZM185.39,363.275L186.075,362.131L179.086,361.314L178.396,362.865L179.047,363.01L181.418,362.76L184.208,363.515L185.39,363.275ZM171.56,357.595L169.925,355.264L168.015,356.65L166.021,356.734L168.351,360.385L170.932,360.218L172.567,360.679L173.786,360.008L171.56,357.595ZM142.77,350.925L143.231,351.281L141.406,354.156L140.819,353.821L142.77,350.925ZM149.11,348.765L147.283,349.959L146.97,351.388L149.761,352.772L151.483,352.729L152.551,351.85L152.783,349.415L151.608,348.366L149.11,348.765Z"/>
    <path id="AK" class="state" d="M15.501,359.654L11.213,360.432L9.522,362.208L11.213,362.986L19.673,359.654L24.749,357.1L34.9,350.438L42.571,342.221L43.359,340.445L40.766,340.445L48.435,329.674L50.127,328.897L50.127,330.451L47.534,332.228L46.743,337.113L48.435,336.336L46.743,338.002L47.534,338.89L52.722,335.559L55.202,334.671L56.106,332.228L55.202,330.451L60.278,329.674L66.257,333.005L71.22,331.339L73.813,332.228L77.197,332.228L86.56,336.336L88.139,338.002L90.732,341.333L95.807,344.664L97.499,346.33L103.478,349.661L109.343,347.107L109.343,343.776L107.651,340.445L105.058,339.667L102.575,339.667L99.191,337.113L95.807,334.671L89.04,328.008L87.348,328.897L85.656,331.339L83.964,333.005L77.987,329.674L77.987,328.008L73.025,329.674L71.22,321.346L67.046,303.024L63.662,290.477L61.97,284.703L56.894,282.26L54.301,283.815L45.955,282.26L43.359,283.037L40.766,282.26L40.766,281.372L33.208,279.706L32.419,281.372L28.132,281.372L24.749,283.815L22.268,286.369L21.365,288.923L19.673,290.477L16.289,290.477L14.597,293.031L17.08,295.585L19.673,299.693L23.057,300.471L23.057,305.578L18.884,305.578L18.884,302.247L17.981,302.247L9.522,305.578L12.117,308.021L12.117,311.352L15.501,313.018L20.464,313.795L23.847,311.352L24.749,317.126L21.365,318.015L20.464,319.68L18.884,320.458L16.289,318.903L14.597,322.234L10.312,326.343L12.905,330.451L12.117,332.228L15.501,335.559L19.673,335.559L21.365,338.002L20.464,339.667L21.365,342.221L24.749,340.445L28.132,343.776L33.208,341.333L31.516,344.664L31.516,347.995L24.749,352.992L22.268,356.323L19.673,356.323L15.501,359.654Z"/>
    <path id="PR" class="state" d="M524.435,363.565L521.552,363.565L520.111,362.389L518.38,362.977L516.073,363.271L515.785,361.801L516.362,360.918L516.938,359.449L516.362,357.684L514.055,355.92L514.92,355.331L516.649,354.449L517.227,352.979L518.38,353.273L519.533,354.155L524.435,354.743L529.338,354.449L531.357,354.449L533.086,355.037L534.24,354.155L535.682,354.155L539.142,354.449L542.601,355.331L543.756,356.508L545.774,356.508L546.061,358.273L545.774,359.449L543.468,359.743L542.025,360.331L541.448,361.801L540.583,363.271L538.853,364.153L532.51,364.153L531.068,363.565L528.184,363.565L526.743,362.977L524.435,363.565ZM548.092,362.398L546.841,362.823L549.343,363.673L552.678,362.823L553.512,361.547L551.427,361.973L548.092,362.398ZM553.929,359.421L552.887,358.784L554.346,357.721L554.763,358.784L553.929,359.421Z"/>

    <text id="LAtext" class="text" x="315.85px" y="300.361px" >LA</text>
    <text id="NCtext" class="text" x="462.962px" y="245.94px" >NC</text>
    <text id="CAtext" class="text" x="29.101px" y="182.944px" >CA</text>
    <text id="KStext" class="text" x="255.957px" y="208.397px" >KS</text>
    <text id="NEtext" class="text" x="248.675px" y="168.753px" >NE</text>
    <text id="SDtext" class="text" x="247.288px" y="127.565px" >SD</text>
    <text id="NDtext" class="text" x="250.011px" y="88.263px" >ND</text>
    <text id="MNtext" class="text" x="303.56px" y="107.823px" >MN</text>
    <text id="IAtext" class="text" x="309.344px" y="165.669px" >IA</text>
    <text id="MOtext" class="text" x="316.662px" y="215.255px" >MO</text>
    <text id="ARtext" class="text" x="316.797px" y="262.222px" >AR</text>
    <text id="SCtext" class="text" x="448.613px" y="271.654px" >SC</text>
    <text id="ALtext" class="text" x="381.577px" y="288.326px" >AL</text>
    <text id="GAtext" class="text" x="418.736px" y="289.282px" >GA</text>
    <text id="ILtext" class="text" x="356.283px" y="192.474px" >IL</text>
    <text id="HItext" class="text" x="165.888px" y="381.881px">HI</text>
    <text id="WItext" class="text" x="347.056px" y="134.447px" >WI</text>
    <text id="MItext" class="text" x="396.29px" y="150.941px" >MI</text>
    <text id="FLtext" class="text" x="445.86px" y="354.421px" >FL</text>
    <text id="WYtext" class="text" x="173.027px" y="135.411px" >WY</text>
    <text id="COtext" class="text" x="181.899px" y="192.735px" >CO</text>
    <text id="MStext" class="text" x="346.415px" y="292.201px" >MS</text>
    <text id="NMtext" class="text" x="167.716px" y="252.955px" >NM</text>
    <text id="TXtext" class="text" x="240.248px" y="307.109px" >TX</text>
    <text id="AZtext" class="text" x="105.066px" y="241.975px" >AZ</text>
    <text id="AKtext" class="text" x="35.259px" y="313.294px" >AK</text>
    <text id="NVtext" class="text" x="71.333px" y="161.189px" >NV</text>
    <text id="ORtext" class="text" x="56.066px" y="84.947px" >OR</text>
    <text id="WAtext" class="text" x="73.84px" y="40.599px" >WA</text>
    <text id="UTtext" class="text" x="120.559px" y="176.323px">UT</text>
    <text id="IDtext" class="text" x="111.952px" y="111.643px">ID</text>
    <text id="MTtext" class="text" x="168.977px" y="78.132px">MT</text>
    <text id="OKtext" class="text" x="265.092px" y="250.217px">OK</text>
    <text id="TNtext" class="text" x="383.236px" y="248.443px">TN</text>
    <text id="KYtext" class="text" x="399.787px" y="224.879px">KY</text>
    <text id="INtext" class="text" x="385.504px" y="193.872px">IN</text>
    <text id="OHtext" class="text" x="416.376px" y="187.516px">OH</text>
    <text id="NYtext" class="text" x="491.601px" y="144.919px">NY</text>
    <text id="VAtext" class="text" x="470.482px" y="217.772px">VA</text>
    <text id="WVtext" class="text" x="436.711px" y="213.844px">WV</text>
    <text id="PAtext" class="text" x="468.981px" y="172.911px">PA</text>
    <text id="MEtext" class="text" x="538.525px" y="98.246px">ME</text>
    <text id="PRtext" class="text" x="525.954px" y="345.349px">PR</text>
    <text id="NHtext" class="text" x="563.657px" y="123.129px">NH</text>
    <text id="VTtext" class="text" x="502.378px" y="87.546px">VT</text>
    <text id="MAtext" class="text" x="566.149px" y="143.327px">MA</text>
    <text id="RItext" class="text" x="570.647px" y="161.993px">RI</text>
    <text id="CTtext" class="text" x="543.906px" y="173.238px">CT</text>
    <text id="NJtext" class="text" x="530.607px" y="190.801px">NJ</text>
    <text id="MDtext" class="text" x="529.419px" y="229.146px">MD</text>
    <text id="DCtext" class="text" x="526.338px" y="247.926px">DC</text>
    <text id="DEtext" class="text" x="534.047px" y="209.612px">DE</text>

    <path id="VTline" class="line" d="M510.288,91.878L518.598,116.488"/>
    <path id="NHline" class="line" d="M560.84,118.463L531.157,126.822"/>
    <path id="CTline" class="line" d="M540.029,167.589L525.306,148.614"/>
    <path id="DCline" class="line" d="M488.476,195.08L523.169,243.966"/>
    <path id="DEline" class="line" d="M503.991,191.911L530.409,205.739"/>
    <path id="MDline" class="line" d="M488.76,188.827L527.199,224.181"/>
    <path id="MAline" class="line" d="M563.551,139.102L533.404,138.178"/>
    <path id="NJline" class="line" d="M527.049,186.301L511.535,174.182"/>
    <path id="RIline" class="line" d="M565.389,158.416L537.587,148.116"/>
</svg>
